<svg width="108" height="55" viewBox="0 0 108 55" fill="none" xmlns="http://www.w3.org/2000/svg">
<path d="M101.584 19.5252L101.583 19.5248L73.1268 3.12033C73.1266 3.1202 73.1263 3.12007 73.1261 3.11993C70.9766 1.87923 68.4223 1.54316 66.025 2.18559C63.6274 2.82809 61.5833 4.39671 60.3423 6.54635C59.1013 8.696 58.765 11.2506 59.4075 13.6482C60.05 16.0457 61.6186 18.0898 63.7682 19.3309L63.7689 19.3313L92.2256 35.7357C92.2258 35.7358 92.2259 35.7359 92.226 35.736C92.2261 35.736 92.2262 35.7361 92.2263 35.7361C94.3758 36.9768 96.9301 37.313 99.3274 36.6705C101.725 36.028 103.769 34.4594 105.01 32.3097C106.251 30.1601 106.587 27.6055 105.945 25.2079C105.302 22.8104 103.734 20.7662 101.584 19.5252Z" fill="#0F9D58" stroke="#15171B" stroke-width="2.53"/>
<path d="M79.1006 27.8368L78.4682 27.4717L77.8358 27.8368L63.7996 35.9388L63.7995 35.9388C62.7351 36.5533 61.8021 37.3714 61.0539 38.3465C60.3057 39.3215 59.7569 40.4344 59.4387 41.6215C59.1206 42.8087 59.0394 44.0469 59.1998 45.2654C59.3602 46.4839 59.759 47.659 60.3735 48.7234C60.988 49.7878 61.8061 50.7207 62.7812 51.4689C63.7562 52.2171 64.8691 52.766 66.0562 53.0841C67.2434 53.4023 68.4816 53.4834 69.7001 53.3231C70.9186 53.1627 72.0936 52.7638 73.158 52.1494C73.1581 52.1494 73.1581 52.1493 73.1581 52.1493L96.0077 38.9585L99.1397 37.1504L95.5635 36.6121C94.4374 36.4425 93.3529 36.0636 92.3662 35.4949C92.3661 35.4948 92.3661 35.4948 92.366 35.4948L79.1006 27.8368Z" fill="#FBBC04" stroke="#15171B" stroke-width="2.53"/>
<path d="M48.6122 41.655C47.9929 39.3438 46.5129 37.361 44.4814 36.1095L44.4503 36.068L44.2259 35.9386L15.7685 19.5254L15.7685 19.5254L15.7664 19.5242C14.6996 18.9117 13.5226 18.5153 12.3026 18.3576C11.0827 18.2 9.84357 18.2842 8.6561 18.6054C7.46864 18.9267 6.35611 19.4786 5.382 20.2298C4.4079 20.981 3.59125 21.9167 2.97874 22.9835C2.36624 24.0503 1.96986 25.2273 1.81222 26.4473C1.65459 27.6673 1.73881 28.9064 2.06004 30.0938C2.38128 31.2813 2.93325 32.3938 3.68444 33.3679C4.43546 34.3418 5.37092 35.1583 6.43743 35.7707C6.43766 35.7709 6.4379 35.771 6.43814 35.7712L34.8929 52.1829C37.0426 53.4239 39.5972 53.7601 41.9948 53.1176C44.3923 52.4751 46.4364 50.9065 47.6775 48.7569C48.9185 46.6072 49.2547 44.0526 48.6122 41.655Z" fill="#4285F4" stroke="#15171B" stroke-width="2.53"/>
<path d="M15.6462 19.7675L15.6465 19.7676L28.9294 27.4009L29.561 27.7639L30.192 27.3997L44.1906 19.3194C45.3293 18.7591 46.3422 17.973 47.1678 17.0088L46.2069 16.1861L47.1678 17.0088C48.0035 16.0328 48.6292 14.8952 49.006 13.6667C49.3828 12.4383 49.5027 11.1454 49.358 9.86866C49.2134 8.59189 48.8073 7.35864 48.1652 6.24567C47.5232 5.13271 46.6588 4.16382 45.6259 3.39946C44.593 2.6351 43.4138 2.09167 42.1618 1.80295C40.9097 1.51422 39.6117 1.48641 38.3484 1.72125C37.1003 1.95328 35.9126 2.43674 34.8576 3.1421L12.0453 16.3114L8.93434 18.1073L12.4841 18.657C13.5975 18.8295 14.6695 19.2059 15.6462 19.7675Z" fill="#EA4335" stroke="#15171B" stroke-width="2.53"/>
</svg>
